#define battery_width 9
#define battery_height 11
static unsigned char battery_bits[] = {
   0x00, 0x00, 0x38, 0x00, 0xfe, 0x00, 0x82, 0x00, 0xba, 0x00, 0xba, 0x00,
   0xba, 0x00, 0xba, 0x00, 0x82, 0x00, 0xfe, 0x00, 0x00, 0x00 };
