#define layout_im_mirror_width 18
#define layout_im_mirror_height 18
static unsigned char layout_im_mirror_bits[] = {
   0x00, 0x00, 0x00, 0x00, 0x00, 0x00, 0x00, 0x00, 0x00, 0x00, 0x00, 0x00,
   0xfc, 0xff, 0x00, 0x44, 0x80, 0x00, 0x44, 0x80, 0x00, 0x44, 0x80, 0x00,
   0x44, 0x80, 0x00, 0x44, 0x80, 0x00, 0xc4, 0xff, 0x00, 0x44, 0x80, 0x00,
   0x44, 0x80, 0x00, 0xfc, 0xff, 0x00, 0x00, 0x00, 0x00, 0x00, 0x00, 0x00,
   0x00, 0x00, 0x00, 0x00, 0x00, 0x00 };
