#define layout_im_grid_width 18
#define layout_im_grid_height 18
static unsigned char layout_im_grid_bits[] = {
   0x00, 0x00, 0x00, 0x00, 0x00, 0x00, 0x00, 0x00, 0x00, 0x00, 0x00, 0x00,
   0xfc, 0xff, 0x00, 0x04, 0x80, 0x00, 0xa4, 0xbf, 0x00, 0x84, 0xa4, 0x00,
   0xa4, 0xa4, 0x00, 0xa4, 0xa4, 0x00, 0xa4, 0xa4, 0x00, 0xa4, 0xa4, 0x00,
   0x04, 0x80, 0x00, 0xfc, 0xff, 0x00, 0x00, 0x00, 0x00, 0x00, 0x00, 0x00,
   0x00, 0x00, 0x00, 0x00, 0x00, 0x00 };
