#define threecol_width 18
#define threecol_height 18
static unsigned char threecol_bits[] = {
 0x00, 0x00, 0x00, 0x00, 0x00, 0x00, 0x00, 0x00, 0x00, 0x00, 0x00, 0x00,
 0xFC, 0xFF, 0x00, 0x44, 0x88, 0x00, 0x44, 0x88, 0x00, 0x44, 0x88, 0x00,
 0x44, 0x88, 0x00, 0x44, 0x88, 0x00, 0x44, 0x88, 0x00, 0x44, 0x88, 0x00,
 0x44, 0x88, 0x00, 0xFC, 0xFF, 0x00, 0x00, 0x00, 0x00, 0x00, 0x00, 0x00,
 0x00, 0x00, 0x00, 0x00, 0x00, 0x00 };
