#define tileleft_width 18
#define tileleft_height 18
static unsigned char tileleft_bits[] = {
 0x00, 0x00, 0x00, 0x00, 0x00, 0x00, 0x00, 0x00, 0x00, 0x00, 0x00, 0x00,
 0xFC, 0xFF, 0x00, 0x44, 0x80, 0x00, 0x44, 0x80, 0x00, 0x7C, 0x80, 0x00,
 0x44, 0x80, 0x00, 0x44, 0x80, 0x00, 0x7C, 0x80, 0x00, 0x44, 0x80, 0x00,
 0x44, 0x80, 0x00, 0xFC, 0xFF, 0x00, 0x00, 0x00, 0x00, 0x00, 0x00, 0x00,
 0x00, 0x00, 0x00, 0x00, 0x00, 0x00 };
