#define tiletop_width 18
#define tiletop_height 18
static unsigned char tiletop_bits[] = {
 0x00, 0x00, 0x00, 0x00, 0x00, 0x00, 0x00, 0x00, 0x00, 0x00, 0x00, 0x00,
 0xFC, 0xFF, 0x00, 0x44, 0x88, 0x00, 0x44, 0x88, 0x00, 0xFC, 0xFF, 0x00,
 0x04, 0x80, 0x00, 0x04, 0x80, 0x00, 0x04, 0x80, 0x00, 0x04, 0x80, 0x00,
 0x04, 0x80, 0x00, 0xFC, 0xFF, 0x00, 0x00, 0x00, 0x00, 0x00, 0x00, 0x00,
 0x00, 0x00, 0x00, 0x00, 0x00, 0x00 };
