#define layout_im_tall_width 18
#define layout_im_tall_height 18
static unsigned char layout_im_tall_bits[] = {
   0x00, 0x00, 0x00, 0x00, 0x00, 0x00, 0x00, 0x00, 0x00, 0x00, 0x00, 0x00,
   0xfc, 0xff, 0x00, 0x44, 0x90, 0x00, 0x44, 0x90, 0x00, 0x44, 0x90, 0x00,
   0x44, 0x90, 0x00, 0x44, 0x90, 0x00, 0x44, 0x90, 0x00, 0x44, 0x90, 0x00,
   0x44, 0x90, 0x00, 0xfc, 0xff, 0x00, 0x00, 0x00, 0x00, 0x00, 0x00, 0x00,
   0x00, 0x00, 0x00, 0x00, 0x00, 0x00 };
